<svg width="215" height="50" viewBox="0 0 215 50" fill="none" xmlns="http://www.w3.org/2000/svg">
    <g clip-path="url(#clip0_345_6)">
        <path
            d="M30.7314 17.8511C31.7519 13.6441 32.2057 9.43718 32.0921 5.11654V5.00284C39.4634 4.20693 47.7419 3.29732 52.5048 0C53.1853 4.20693 53.8657 11.1427 45.5873 22.8539C37.0819 34.6787 23.9271 41.1598 13.0404 44.5707C15.6487 42.5241 18.0302 40.1364 20.2982 37.635C25.5148 31.7225 28.9169 25.0143 30.7314 17.8511ZM27.7828 5.57134C17.5766 6.59466 10.4321 9.89198 5.89598 15.577C0.906231 21.717 -0.794821 31.1541 0.679424 44.0023C0.792827 45.253 0.906231 46.1625 1.01963 46.8448H1.13304C6.57641 44.2296 27.8962 32.0637 27.7828 5.57134ZM55.6802 13.303C54.0925 17.6236 51.9378 21.717 49.2161 25.4689C40.5975 37.4077 27.8962 43.8886 18.5971 47.2996C15.6487 48.4366 12.8136 49.2325 10.4321 49.9146C17.69 50.2559 24.3807 49.5736 30.2777 47.868C36.9686 45.9352 42.4119 42.6379 46.7212 38.2036C52.9584 31.7225 56.1337 22.9677 55.6802 13.303Z"
            fill="url(#paint0_radial_345_6)" />
        <path
            d="M84.4878 23.4264C83.0137 22.403 80.0651 21.2661 77.0031 21.2661C73.9413 21.2661 71.7867 22.6305 71.7867 24.6771C71.7867 26.4962 73.4878 27.4059 76.2094 27.747L78.931 28.0882C83.8074 28.7704 86.756 30.817 86.756 34.6829C86.756 39.1171 82.7867 41.9596 76.5496 41.9596C73.7146 41.9596 69.8588 41.2775 66.7969 39.0034L68.6113 36.0471C70.3124 37.4116 72.5804 38.5486 76.4362 38.5486C80.2919 38.5486 82.5599 37.2979 82.5599 35.0239C82.5599 33.3184 81.0858 32.295 77.9104 31.8404L75.1887 31.4991C70.0856 30.817 67.5906 28.5429 67.5906 25.0182C67.5906 20.5839 71.2196 17.9688 76.8897 17.9688C80.5187 17.9688 83.8074 18.8784 86.0755 20.4702L84.4878 23.4264Z"
            fill="#03267F" />
        <path
            d="M110.909 31.7204C110.909 38.6561 105.919 41.8397 100.363 41.8397C94.8057 41.8397 89.8159 38.6561 89.8159 31.7204V18.3036H93.785V31.3791C93.785 36.0409 96.6202 38.2013 100.363 38.2013C104.105 38.2013 106.94 36.1547 106.94 31.3791V18.3036H110.909V31.7204Z"
            fill="#03267F" />
        <path
            d="M134.375 21.1461L120.2 37.7464H134.602V41.3848H114.983V38.5423L129.386 21.942H115.437V18.3036H134.489V21.1461H134.375Z"
            fill="#03267F" />
        <path
            d="M160.002 41.3953H156.032V38.3253C154.218 40.4857 151.496 41.8501 147.867 41.8501C141.403 41.8501 136.3 36.8473 136.3 29.7978C136.3 22.7483 141.29 17.7455 147.867 17.7455C151.496 17.7455 154.218 19.1099 156.032 21.3839V18.2003H160.002V41.3953ZM140.496 29.7978C140.496 34.3458 143.672 38.098 148.434 38.098C153.197 38.098 156.373 34.5732 156.373 29.7978C156.373 25.0223 153.084 21.4976 148.434 21.4976C143.785 21.4976 140.496 25.2498 140.496 29.7978Z"
            fill="#03267F" />
        <path
            d="M186.552 27.0689V41.3953H182.582V28.3196C182.582 24.1128 180.2 21.6114 176.231 21.6114C172.489 21.6114 169.427 24.1128 169.427 28.4333V41.3953H165.458V18.3141H169.427V21.2701C171.355 18.6551 174.303 17.7455 176.912 17.7455C182.694 17.7455 186.552 21.4976 186.552 27.0689Z"
            fill="#03267F" />
        <path
            d="M214.45 29.7978C214.45 36.6198 209.232 41.8501 202.201 41.8501C195.171 41.8501 190.067 36.6198 190.067 29.7978C190.067 22.9757 195.283 17.7455 202.201 17.7455C209.119 17.7455 214.45 22.9757 214.45 29.7978ZM194.15 29.7978C194.15 34.6869 197.666 38.098 202.314 38.098C206.964 38.098 210.48 34.5732 210.48 29.7978C210.48 25.0223 206.964 21.4976 202.314 21.4976C197.666 21.4976 194.15 25.0223 194.15 29.7978Z"
            fill="#03267F" />
    </g>
    <defs>
        <radialGradient id="paint0_radial_345_6" cx="0" cy="0" r="1" gradientUnits="userSpaceOnUse"
            gradientTransform="translate(-14.7094 25.2189) scale(81.4805 81.6941)">
            <stop stop-color="#A4E03D" />
            <stop offset="0.5" stop-color="#00CC66" />
            <stop offset="1" stop-color="#008461" />
        </radialGradient>
        <clipPath id="clip0_345_6">
            <rect width="214.286" height="50" fill="white" transform="translate(0.16748)" />
        </clipPath>
    </defs>
</svg>
    