<svg width="76" height="76" viewBox="0 0 76 76" fill="none" xmlns="http://www.w3.org/2000/svg">
    <mask id="mask0_292_421" style="mask-type:alpha" maskUnits="userSpaceOnUse" x="0" y="0" width="76" height="76">
    <rect x="0.5" y="0.5" width="75" height="75" fill="#D9D9D9"/>
    </mask>
    <g mask="url(#mask0_292_421)">
    <path d="M34.875 66.125V59.875H59.875V37.6875C59.875 31.5938 57.7526 26.4245 53.5078 22.1797C49.263 17.9349 44.0938 15.8125 38 15.8125C31.9062 15.8125 26.737 17.9349 22.4922 22.1797C18.2474 26.4245 16.125 31.5938 16.125 37.6875V56.75H13C11.2812 56.75 9.8099 56.138 8.58594 54.9141C7.36198 53.6901 6.75 52.2188 6.75 50.5V44.25C6.75 43.1562 7.02344 42.1276 7.57031 41.1641C8.11719 40.2005 8.88542 39.4323 9.875 38.8594L10.1094 34.7188C10.526 31.1771 11.5547 27.8958 13.1953 24.875C14.8359 21.8542 16.8932 19.224 19.3672 16.9844C21.8411 14.7448 24.6797 13 27.8828 11.75C31.0859 10.5 34.4583 9.875 38 9.875C41.5417 9.875 44.901 10.5 48.0781 11.75C51.2552 13 54.0938 14.7318 56.5938 16.9453C59.0938 19.1589 61.151 21.776 62.7656 24.7969C64.3802 27.8177 65.4219 31.099 65.8906 34.6406L66.125 38.7031C67.1146 39.1719 67.8828 39.875 68.4297 40.8125C68.9766 41.75 69.25 42.7396 69.25 43.7812V50.9688C69.25 52.0104 68.9766 53 68.4297 53.9375C67.8828 54.875 67.1146 55.5781 66.125 56.0469V59.875C66.125 61.5938 65.513 63.0651 64.2891 64.2891C63.0651 65.513 61.5938 66.125 59.875 66.125H34.875ZM28.625 44.25C27.7396 44.25 26.9974 43.9505 26.3984 43.3516C25.7995 42.7526 25.5 42.0104 25.5 41.125C25.5 40.2396 25.7995 39.4974 26.3984 38.8984C26.9974 38.2995 27.7396 38 28.625 38C29.5104 38 30.2526 38.2995 30.8516 38.8984C31.4505 39.4974 31.75 40.2396 31.75 41.125C31.75 42.0104 31.4505 42.7526 30.8516 43.3516C30.2526 43.9505 29.5104 44.25 28.625 44.25ZM47.375 44.25C46.4896 44.25 45.7474 43.9505 45.1484 43.3516C44.5495 42.7526 44.25 42.0104 44.25 41.125C44.25 40.2396 44.5495 39.4974 45.1484 38.8984C45.7474 38.2995 46.4896 38 47.375 38C48.2604 38 49.0026 38.2995 49.6016 38.8984C50.2005 39.4974 50.5 40.2396 50.5 41.125C50.5 42.0104 50.2005 42.7526 49.6016 43.3516C49.0026 43.9505 48.2604 44.25 47.375 44.25ZM19.3281 39.4062C18.9635 33.8854 20.6302 29.1458 24.3281 25.1875C28.026 21.2292 32.6354 19.25 38.1562 19.25C42.7917 19.25 46.8672 20.7214 50.3828 23.6641C53.8984 26.6068 56.0208 30.3698 56.75 34.9531C52.0104 34.901 47.6484 33.625 43.6641 31.125C39.6797 28.625 36.6198 25.2396 34.4844 20.9688C33.651 25.1354 31.8932 28.8464 29.2109 32.1016C26.5286 35.3568 23.2344 37.7917 19.3281 39.4062Z" fill="#0E6835"/>
    </g>
    </svg>
    