<svg width="76" height="76" viewBox="0 0 76 76" fill="none" xmlns="http://www.w3.org/2000/svg">
    <mask id="mask0_293_8" style="mask-type:alpha" maskUnits="userSpaceOnUse" x="0" y="0" width="76" height="76">
    <rect x="0.5" y="0.5" width="75" height="75" fill="#D9D9D9"/>
    </mask>
    <g mask="url(#mask0_293_8)">
    <path d="M16.125 66.125C14.4062 66.125 12.9349 65.513 11.7109 64.2891C10.487 63.0651 9.875 61.5938 9.875 59.875V16.125C9.875 14.4062 10.487 12.9349 11.7109 11.7109C12.9349 10.487 14.4062 9.875 16.125 9.875H29.25C29.9271 8 31.0599 6.48958 32.6484 5.34375C34.237 4.19792 36.0208 3.625 38 3.625C39.9792 3.625 41.763 4.19792 43.3516 5.34375C44.9401 6.48958 46.0729 8 46.75 9.875H59.875C61.5938 9.875 63.0651 10.487 64.2891 11.7109C65.513 12.9349 66.125 14.4062 66.125 16.125V59.875C66.125 61.5938 65.513 63.0651 64.2891 64.2891C63.0651 65.513 61.5938 66.125 59.875 66.125H16.125ZM16.125 59.875H59.875V16.125H16.125V59.875ZM22.375 53.625H44.25V47.375H22.375V53.625ZM22.375 41.125H53.625V34.875H22.375V41.125ZM22.375 28.625H53.625V22.375H22.375V28.625ZM38 13.7812C38.6771 13.7812 39.237 13.5599 39.6797 13.1172C40.1224 12.6745 40.3438 12.1146 40.3438 11.4375C40.3438 10.7604 40.1224 10.2005 39.6797 9.75781C39.237 9.3151 38.6771 9.09375 38 9.09375C37.3229 9.09375 36.763 9.3151 36.3203 9.75781C35.8776 10.2005 35.6562 10.7604 35.6562 11.4375C35.6562 12.1146 35.8776 12.6745 36.3203 13.1172C36.763 13.5599 37.3229 13.7812 38 13.7812Z" fill="#0E6835"/>
    </g>
    </svg>
    