<svg width="76" height="75" viewBox="0 0 76 75" fill="none" xmlns="http://www.w3.org/2000/svg">
    <mask id="mask0_293_16" style="mask-type:alpha" maskUnits="userSpaceOnUse" x="0" y="0" width="76" height="75">
    <rect x="0.5" width="75" height="75" fill="#D9D9D9"/>
    </mask>
    <g mask="url(#mask0_293_16)">
    <path d="M25.5 37.5V31.25H50.5V37.5H25.5ZM25.5 25V18.75H50.5V25H25.5ZM19.25 43.75H42.6875C44.1979 43.75 45.6042 44.0755 46.9062 44.7266C48.2083 45.3776 49.3021 46.3021 50.1875 47.5L56.75 56.0938V12.5H19.25V43.75ZM19.25 62.5H53.7812L45.2656 51.3281C44.9531 50.9115 44.5755 50.5859 44.1328 50.3516C43.6901 50.1172 43.2083 50 42.6875 50H19.25V62.5ZM56.75 68.75H19.25C17.5312 68.75 16.0599 68.138 14.8359 66.9141C13.612 65.6901 13 64.2188 13 62.5V12.5C13 10.7812 13.612 9.3099 14.8359 8.08594C16.0599 6.86198 17.5312 6.25 19.25 6.25H56.75C58.4688 6.25 59.9401 6.86198 61.1641 8.08594C62.388 9.3099 63 10.7812 63 12.5V62.5C63 64.2188 62.388 65.6901 61.1641 66.9141C59.9401 68.138 58.4688 68.75 56.75 68.75Z" fill="#0E6835"/>
    </g>
    </svg>
    