<svg width="30" height="31" viewBox="0 0 30 31" fill="none" xmlns="http://www.w3.org/2000/svg">
    <g clip-path="url(#clip0_277_329)">
    <path d="M15 2.83276C19.0078 2.83276 19.4824 2.85034 21.0586 2.92065C22.5234 2.98511 23.3145 3.2312 23.8418 3.43628C24.5391 3.70581 25.043 4.03394 25.5645 4.55542C26.0918 5.08276 26.4141 5.58081 26.6836 6.27808C26.8887 6.80542 27.1348 7.60229 27.1992 9.06128C27.2695 10.6433 27.2871 11.1179 27.2871 15.1199C27.2871 19.1277 27.2695 19.6023 27.1992 21.1785C27.1348 22.6433 26.8887 23.4343 26.6836 23.9617C26.4141 24.6589 26.0859 25.1628 25.5645 25.6843C25.0371 26.2117 24.5391 26.5339 23.8418 26.8035C23.3145 27.0085 22.5176 27.2546 21.0586 27.3191C19.4766 27.3894 19.002 27.407 15 27.407C10.9922 27.407 10.5176 27.3894 8.94141 27.3191C7.47656 27.2546 6.68555 27.0085 6.1582 26.8035C5.46094 26.5339 4.95703 26.2058 4.43555 25.6843C3.9082 25.157 3.58594 24.6589 3.31641 23.9617C3.11133 23.4343 2.86523 22.6375 2.80078 21.1785C2.73047 19.5964 2.71289 19.1218 2.71289 15.1199C2.71289 11.1121 2.73047 10.6375 2.80078 9.06128C2.86523 7.59644 3.11133 6.80542 3.31641 6.27808C3.58594 5.58081 3.91406 5.0769 4.43555 4.55542C4.96289 4.02808 5.46094 3.70581 6.1582 3.43628C6.68555 3.2312 7.48242 2.98511 8.94141 2.92065C10.5176 2.85034 10.9922 2.83276 15 2.83276ZM15 0.131592C10.9277 0.131592 10.418 0.14917 8.81836 0.219482C7.22461 0.289795 6.12891 0.547607 5.17969 0.916748C4.18945 1.30347 3.35156 1.81323 2.51953 2.65112C1.68164 3.48315 1.17188 4.32105 0.785156 5.30542C0.416016 6.2605 0.158203 7.35034 0.0878906 8.94409C0.0175781 10.5496 0 11.0593 0 15.1316C0 19.2039 0.0175781 19.7136 0.0878906 21.3132C0.158203 22.907 0.416016 24.0027 0.785156 24.9519C1.17188 25.9421 1.68164 26.78 2.51953 27.6121C3.35156 28.4441 4.18945 28.9597 5.17383 29.3406C6.12891 29.7097 7.21875 29.9675 8.8125 30.0378C10.4121 30.1082 10.9219 30.1257 14.9941 30.1257C19.0664 30.1257 19.5762 30.1082 21.1758 30.0378C22.7695 29.9675 23.8652 29.7097 24.8145 29.3406C25.7988 28.9597 26.6367 28.4441 27.4688 27.6121C28.3008 26.78 28.8164 25.9421 29.1973 24.9578C29.5664 24.0027 29.8242 22.9128 29.8945 21.3191C29.9648 19.7195 29.9824 19.2097 29.9824 15.1375C29.9824 11.0652 29.9648 10.5554 29.8945 8.95581C29.8242 7.36206 29.5664 6.26636 29.1973 5.31714C28.8281 4.32104 28.3184 3.48315 27.4805 2.65112C26.6484 1.81909 25.8105 1.30347 24.8262 0.922607C23.8711 0.553467 22.7813 0.295654 21.1875 0.225342C19.582 0.14917 19.0723 0.131592 15 0.131592Z" fill="#040F08"/>
    <path d="M15 7.42651C10.7461 7.42651 7.29492 10.8777 7.29492 15.1316C7.29492 19.3855 10.7461 22.8367 15 22.8367C19.2539 22.8367 22.7051 19.3855 22.7051 15.1316C22.7051 10.8777 19.2539 7.42651 15 7.42651ZM15 20.1296C12.2402 20.1296 10.002 17.8914 10.002 15.1316C10.002 12.3718 12.2402 10.1335 15 10.1335C17.7598 10.1335 19.998 12.3718 19.998 15.1316C19.998 17.8914 17.7598 20.1296 15 20.1296Z" fill="#040F08"/>
    <path d="M24.8086 7.12183C24.8086 8.11792 24 8.92066 23.0098 8.92066C22.0137 8.92066 21.2109 8.11206 21.2109 7.12183C21.2109 6.12573 22.0195 5.323 23.0098 5.323C24 5.323 24.8086 6.13159 24.8086 7.12183Z" fill="#040F08"/>
    </g>
    <defs>
    <clipPath id="clip0_277_329">
    <rect width="30" height="30" fill="white" transform="translate(0 0.131592)"/>
    </clipPath>
    </defs>
    </svg>
    