<svg width="30" height="31" viewBox="0 0 30 31" fill="none" xmlns="http://www.w3.org/2000/svg">
    <g clip-path="url(#clip0_277_327)">
    <rect width="30" height="30" transform="translate(0 0.131592)" fill="#D9D9D9"/>
    <path d="M27.7793 0.131592H2.21484C0.990234 0.131592 0 1.09839 0 2.2937V27.9636C0 29.1589 0.990234 30.1316 2.21484 30.1316H27.7793C29.0039 30.1316 30 29.1589 30 27.9695V2.2937C30 1.09839 29.0039 0.131592 27.7793 0.131592ZM8.90039 25.696H4.44727V11.3757H8.90039V25.696ZM6.67383 9.42456C5.24414 9.42456 4.08984 8.27026 4.08984 6.84644C4.08984 5.42261 5.24414 4.26831 6.67383 4.26831C8.09766 4.26831 9.25195 5.42261 9.25195 6.84644C9.25195 8.2644 8.09766 9.42456 6.67383 9.42456ZM25.5645 25.696H21.1172V18.7351C21.1172 17.0769 21.0879 14.9382 18.8027 14.9382C16.4883 14.9382 16.1367 16.7488 16.1367 18.6179V25.696H11.6953V11.3757H15.9609V13.3328H16.0195C16.6113 12.2078 18.0645 11.0183 20.2266 11.0183C24.7324 11.0183 25.5645 13.9832 25.5645 17.8386V25.696Z" fill="#040F08"/>
    </g>
    <defs>
    <clipPath id="clip0_277_327">
    <rect width="30" height="30" fill="white" transform="translate(0 0.131592)"/>
    </clipPath>
    </defs>
    </svg>
    