<svg width="30" height="31" viewBox="0 0 30 31" fill="none" xmlns="http://www.w3.org/2000/svg">
    <g clip-path="url(#clip0_277_335)">
    <path d="M21.3407 0.131592H16.2848V20.5663C16.2848 23.0012 14.3402 25.0012 11.9203 25.0012C9.50042 25.0012 7.55586 23.0012 7.55586 20.5663C7.55586 18.1751 9.45721 16.2185 11.7907 16.1316V11.0012C6.6484 11.0881 2.5 15.3055 2.5 20.5663C2.5 25.8708 6.73482 30.1316 11.9636 30.1316C17.1922 30.1316 21.427 25.8273 21.427 20.5663V10.0881C23.3284 11.4794 25.6619 12.3055 28.125 12.349V7.21855C24.3223 7.08812 21.3407 3.95767 21.3407 0.131592Z" fill="#040F08"/>
    </g>
    <defs>
    <clipPath id="clip0_277_335">
    <rect width="30" height="30" fill="white" transform="translate(0 0.131592)"/>
    </clipPath>
    </defs>
    </svg>
    