<svg width="35" height="36" viewBox="0 0 35 36" fill="none" xmlns="http://www.w3.org/2000/svg">
    <path d="M34.6514 11.1316C34.6514 11.1316 34.3096 8.71851 33.2568 7.65894C31.9238 6.2644 30.4336 6.25757 29.75 6.17554C24.8555 5.82007 17.5068 5.82007 17.5068 5.82007H17.4932C17.4932 5.82007 10.1445 5.82007 5.25 6.17554C4.56641 6.25757 3.07617 6.2644 1.74316 7.65894C0.69043 8.71851 0.355469 11.1316 0.355469 11.1316C0.355469 11.1316 0 13.9685 0 16.7986V19.4509C0 22.281 0.348633 25.1179 0.348633 25.1179C0.348633 25.1179 0.69043 27.531 1.73633 28.5906C3.06934 29.9851 4.81934 29.9373 5.59863 30.0876C8.40137 30.3542 17.5 30.4363 17.5 30.4363C17.5 30.4363 24.8555 30.4226 29.75 30.074C30.4336 29.9919 31.9238 29.9851 33.2568 28.5906C34.3096 27.531 34.6514 25.1179 34.6514 25.1179C34.6514 25.1179 35 22.2878 35 19.4509V16.7986C35 13.9685 34.6514 11.1316 34.6514 11.1316ZM13.8838 22.6707V12.8337L23.3379 17.7693L13.8838 22.6707Z" fill="#040F08"/>
    </svg>
    