<svg width="76" height="75" viewBox="0 0 76 75" fill="none" xmlns="http://www.w3.org/2000/svg">
    <mask id="mask0_292_395" style="mask-type:alpha" maskUnits="userSpaceOnUse" x="0" y="0" width="76" height="75">
    <rect x="0.5" width="75" height="75" fill="#D9D9D9"/>
    </mask>
    <g mask="url(#mask0_292_395)">
    <path d="M47.375 62.5C40.3958 62.5 34.4844 60.0781 29.6406 55.2344C24.7969 50.3906 22.375 44.4792 22.375 37.5C22.375 30.5729 24.7969 24.6745 29.6406 19.8047C34.4844 14.9349 40.3958 12.5 47.375 12.5C54.3021 12.5 60.2005 14.9349 65.0703 19.8047C69.9401 24.6745 72.375 30.5729 72.375 37.5C72.375 44.4792 69.9401 50.3906 65.0703 55.2344C60.2005 60.0781 54.3021 62.5 47.375 62.5ZM47.375 56.25C52.5833 56.25 57.0104 54.4271 60.6562 50.7812C64.3021 47.1354 66.125 42.7083 66.125 37.5C66.125 32.2917 64.3021 27.8646 60.6562 24.2188C57.0104 20.5729 52.5833 18.75 47.375 18.75C42.1667 18.75 37.7396 20.5729 34.0938 24.2188C30.4479 27.8646 28.625 32.2917 28.625 37.5C28.625 42.7083 30.4479 47.1354 34.0938 50.7812C37.7396 54.4271 42.1667 56.25 47.375 56.25ZM54.4844 49.1406L58.9375 44.6875L50.5 36.25V25H44.25V38.8281L54.4844 49.1406ZM6.75 28.125V21.875H19.25V28.125H6.75ZM3.625 40.625V34.375H19.25V40.625H3.625ZM6.75 53.125V46.875H19.25V53.125H6.75Z" fill="#D9D9D9"/>
    </g>
    </svg>
    