<svg width="76" height="76" viewBox="0 0 76 76" fill="none" xmlns="http://www.w3.org/2000/svg">
    <mask id="mask0_292_410" style="mask-type:alpha" maskUnits="userSpaceOnUse" x="0" y="0" width="76" height="76">
    <rect x="0.5" y="0.5" width="75" height="75" fill="#D9D9D9"/>
    </mask>
    <g mask="url(#mask0_292_410)">
    <path d="M20.8125 63C16.0729 63 12.0234 61.3594 8.66406 58.0781C5.30469 54.7969 3.625 50.7865 3.625 46.0469C3.625 41.9844 4.84896 38.3646 7.29688 35.1875C9.74479 32.0104 12.9479 29.9792 16.9062 29.0938C18.2083 24.3021 20.8125 20.4219 24.7188 17.4531C28.625 14.4844 33.0521 13 38 13C44.0938 13 49.263 15.1224 53.5078 19.3672C57.7526 23.612 59.875 28.7812 59.875 34.875C63.4688 35.2917 66.4505 36.8411 68.8203 39.5234C71.1901 42.2057 72.375 45.3438 72.375 48.9375C72.375 52.8438 71.0078 56.1641 68.2734 58.8984C65.5391 61.6328 62.2188 63 58.3125 63H41.125C39.4062 63 37.9349 62.388 36.7109 61.1641C35.487 59.9401 34.875 58.4688 34.875 56.75V40.6563L29.875 45.5L25.5 41.125L38 28.625L50.5 41.125L46.125 45.5L41.125 40.6563V56.75H58.3125C60.5 56.75 62.349 55.9948 63.8594 54.4844C65.3698 52.974 66.125 51.125 66.125 48.9375C66.125 46.75 65.3698 44.901 63.8594 43.3906C62.349 41.8802 60.5 41.125 58.3125 41.125H53.625V34.875C53.625 30.5521 52.1016 26.8672 49.0547 23.8203C46.0078 20.7734 42.3229 19.25 38 19.25C33.6771 19.25 29.9922 20.7734 26.9453 23.8203C23.8984 26.8672 22.375 30.5521 22.375 34.875H20.8125C17.7917 34.875 15.2135 35.9427 13.0781 38.0781C10.9427 40.2135 9.875 42.7917 9.875 45.8125C9.875 48.8333 10.9427 51.4115 13.0781 53.5469C15.2135 55.6823 17.7917 56.75 20.8125 56.75H28.625V63H20.8125Z" fill="#D9D9D9"/>
    </g>
    </svg>
    