<svg width="25" height="25" viewBox="0 0 25 25" fill="none" xmlns="http://www.w3.org/2000/svg">
    <mask id="mask0_277_357" style="mask-type:alpha" maskUnits="userSpaceOnUse" x="0" y="0" width="25" height="25">
    <rect x="0.5" y="0.5" width="24" height="24" fill="#D9D9D9"/>
    </mask>
    <g mask="url(#mask0_277_357)">
    <path d="M17.5 19.5H19.5V5.5H17.5V19.5ZM7.5 14.5C7.78333 14.5 8.02083 14.4042 8.2125 14.2125C8.40417 14.0208 8.5 13.7833 8.5 13.5C8.5 13.2167 8.40417 12.9792 8.2125 12.7875C8.02083 12.5958 7.78333 12.5 7.5 12.5C7.21667 12.5 6.97917 12.5958 6.7875 12.7875C6.59583 12.9792 6.5 13.2167 6.5 13.5C6.5 13.7833 6.59583 14.0208 6.7875 14.2125C6.97917 14.4042 7.21667 14.5 7.5 14.5ZM7.5 17.5C7.78333 17.5 8.02083 17.4042 8.2125 17.2125C8.40417 17.0208 8.5 16.7833 8.5 16.5C8.5 16.2167 8.40417 15.9792 8.2125 15.7875C8.02083 15.5958 7.78333 15.5 7.5 15.5C7.21667 15.5 6.97917 15.5958 6.7875 15.7875C6.59583 15.9792 6.5 16.2167 6.5 16.5C6.5 16.7833 6.59583 17.0208 6.7875 17.2125C6.97917 17.4042 7.21667 17.5 7.5 17.5ZM6.5 11.5H14.5V7.5H6.5V11.5ZM10.5 14.5C10.7833 14.5 11.0208 14.4042 11.2125 14.2125C11.4042 14.0208 11.5 13.7833 11.5 13.5C11.5 13.2167 11.4042 12.9792 11.2125 12.7875C11.0208 12.5958 10.7833 12.5 10.5 12.5C10.2167 12.5 9.97917 12.5958 9.7875 12.7875C9.59583 12.9792 9.5 13.2167 9.5 13.5C9.5 13.7833 9.59583 14.0208 9.7875 14.2125C9.97917 14.4042 10.2167 14.5 10.5 14.5ZM10.5 17.5C10.7833 17.5 11.0208 17.4042 11.2125 17.2125C11.4042 17.0208 11.5 16.7833 11.5 16.5C11.5 16.2167 11.4042 15.9792 11.2125 15.7875C11.0208 15.5958 10.7833 15.5 10.5 15.5C10.2167 15.5 9.97917 15.5958 9.7875 15.7875C9.59583 15.9792 9.5 16.2167 9.5 16.5C9.5 16.7833 9.59583 17.0208 9.7875 17.2125C9.97917 17.4042 10.2167 17.5 10.5 17.5ZM13.5 14.5C13.7833 14.5 14.0208 14.4042 14.2125 14.2125C14.4042 14.0208 14.5 13.7833 14.5 13.5C14.5 13.2167 14.4042 12.9792 14.2125 12.7875C14.0208 12.5958 13.7833 12.5 13.5 12.5C13.2167 12.5 12.9792 12.5958 12.7875 12.7875C12.5958 12.9792 12.5 13.2167 12.5 13.5C12.5 13.7833 12.5958 14.0208 12.7875 14.2125C12.9792 14.4042 13.2167 14.5 13.5 14.5ZM13.5 17.5C13.7833 17.5 14.0208 17.4042 14.2125 17.2125C14.4042 17.0208 14.5 16.7833 14.5 16.5C14.5 16.2167 14.4042 15.9792 14.2125 15.7875C14.0208 15.5958 13.7833 15.5 13.5 15.5C13.2167 15.5 12.9792 15.5958 12.7875 15.7875C12.5958 15.9792 12.5 16.2167 12.5 16.5C12.5 16.7833 12.5958 17.0208 12.7875 17.2125C12.9792 17.4042 13.2167 17.5 13.5 17.5ZM15.5 18.5V6.5H5.5V18.5H15.5ZM17.5 21.5C17.1167 21.5 16.7792 21.4083 16.4875 21.225C16.1958 21.0417 15.9583 20.8 15.775 20.5H5.5C4.95 20.5 4.47917 20.3042 4.0875 19.9125C3.69583 19.5208 3.5 19.05 3.5 18.5V6.5C3.5 5.95 3.69583 5.47917 4.0875 5.0875C4.47917 4.69583 4.95 4.5 5.5 4.5H15.775C15.9583 4.2 16.1958 3.95833 16.4875 3.775C16.7792 3.59167 17.1167 3.5 17.5 3.5H19.5C20.05 3.5 20.5208 3.69583 20.9125 4.0875C21.3042 4.47917 21.5 4.95 21.5 5.5V19.5C21.5 20.05 21.3042 20.5208 20.9125 20.9125C20.5208 21.3042 20.05 21.5 19.5 21.5H17.5Z" fill="#0E6835"/>
    </g>
    </svg>
    