<svg width="25" height="25" viewBox="0 0 25 25" fill="none" xmlns="http://www.w3.org/2000/svg">
    <mask id="mask0_277_352" style="mask-type:alpha" maskUnits="userSpaceOnUse" x="0" y="0" width="25" height="25">
    <rect x="0.5" y="0.5" width="24" height="24" fill="#D9D9D9"/>
    </mask>
    <g mask="url(#mask0_277_352)">
    <path d="M7.5 17.5C6.95 17.5 6.47917 17.3042 6.0875 16.9125C5.69583 16.5208 5.5 16.05 5.5 15.5V5.5C5.5 4.95 5.69583 4.47917 6.0875 4.0875C6.47917 3.69583 6.95 3.5 7.5 3.5H21.5C22.05 3.5 22.5208 3.69583 22.9125 4.0875C23.3042 4.47917 23.5 4.95 23.5 5.5V15.5C23.5 16.05 23.3042 16.5208 22.9125 16.9125C22.5208 17.3042 22.05 17.5 21.5 17.5H7.5ZM14.5 12.8L7.5 7.925V15.5H21.5V7.925L14.5 12.8ZM14.5 10.35L21.5 5.5H7.5L14.5 10.35ZM3.5 21.5C2.95 21.5 2.47917 21.3042 2.0875 20.9125C1.69583 20.5208 1.5 20.05 1.5 19.5V7H3.5V19.5H20V21.5H3.5Z" fill="#0E6835"/>
    </g>
    </svg>
    