<svg width="76" height="54" viewBox="0 0 76 54" fill="none" xmlns="http://www.w3.org/2000/svg">
    <path d="M38 53.625C35.8125 53.625 33.9635 52.8698 32.4531 51.3594C30.9427 49.849 30.1875 48 30.1875 45.8125C30.1875 43.625 30.9427 41.776 32.4531 40.2656C33.9635 38.7552 35.8125 38 38 38C40.1875 38 42.0365 38.7552 43.5469 40.2656C45.0573 41.776 45.8125 43.625 45.8125 45.8125C45.8125 48 45.0573 49.849 43.5469 51.3594C42.0365 52.8698 40.1875 53.625 38 53.625ZM20.3438 35.9688L13.7812 29.25C16.8542 26.1771 20.4609 23.7422 24.6016 21.9453C28.7422 20.1484 33.2083 19.25 38 19.25C42.7917 19.25 47.2578 20.1615 51.3984 21.9844C55.5391 23.8073 59.1458 26.2812 62.2188 29.4062L55.6562 35.9688C53.3646 33.6771 50.7083 31.8802 47.6875 30.5781C44.6667 29.276 41.4375 28.625 38 28.625C34.5625 28.625 31.3333 29.276 28.3125 30.5781C25.2917 31.8802 22.6354 33.6771 20.3438 35.9688ZM7.0625 22.6875L0.5 16.125C5.29167 11.2292 10.8906 7.40104 17.2969 4.64062C23.7031 1.88021 30.6042 0.5 38 0.5C45.3958 0.5 52.2969 1.88021 58.7031 4.64062C65.1094 7.40104 70.7083 11.2292 75.5 16.125L68.9375 22.6875C64.9271 18.6771 60.2786 15.5391 54.9922 13.2734C49.7057 11.0078 44.0417 9.875 38 9.875C31.9583 9.875 26.2943 11.0078 21.0078 13.2734C15.7214 15.5391 11.0729 18.6771 7.0625 22.6875Z" fill="#D9D9D9"/>
    </svg>
    