<svg width="25" height="25" viewBox="0 0 25 25" fill="none" xmlns="http://www.w3.org/2000/svg">
    <mask id="mask0_277_347" style="mask-type:alpha" maskUnits="userSpaceOnUse" x="0" y="0" width="25" height="25">
    <rect x="0.5" y="0.5" width="24" height="24" fill="#D9D9D9"/>
    </mask>
    <g mask="url(#mask0_277_347)">
    <path d="M17.5 9.5H19.5V7.5H17.5V9.5ZM17.5 13.5H19.5V11.5H17.5V13.5ZM17.5 17.5H19.5V15.5H17.5V17.5ZM17.5 21.5V19.5H21.5V5.5H12.5V6.9L10.5 5.45V3.5H23.5V21.5H17.5ZM1.5 21.5V11.5L8.5 6.5L15.5 11.5V21.5H9.5V16.5H7.5V21.5H1.5ZM3.5 19.5H5.5V14.5H11.5V19.5H13.5V12.5L8.5 8.95L3.5 12.5V19.5Z" fill="#0E6835"/>
    </g>
    </svg>
    