<svg width="200" height="54" viewBox="0 0 200 54" fill="none" xmlns="http://www.w3.org/2000/svg">
    <path d="M26.9816 25.5028C26.6068 25.7034 26.291 25.9987 26.0657 26.3592C25.078 27.9909 25.4062 29.8695 25.4062 31.6731V39.4188C25.4062 40.8317 25.6813 42.6478 24.9623 43.9106C24.6597 44.443 24.2221 44.8863 23.6937 45.1958C23.1653 45.5053 22.5646 45.67 21.9522 45.6735H13.053V20.3546C13.053 19.1401 13.5355 17.9753 14.3943 17.1165C15.2531 16.2577 16.4178 15.7753 17.6323 15.7753H24.8029L24.9342 24.912L23.0212 22.3426C23.8264 20.139 25.3737 18.2845 27.3973 17.0975C29.3978 15.9316 31.8047 16.0253 34.6085 16.0253L34.4741 25.0026H32.8831C31.3515 24.9995 28.5976 24.6025 26.9816 25.5028Z" fill="#0E6835"/>
    <path d="M63.5847 45.7893V19.4794C63.5847 18.5302 63.9617 17.6199 64.6329 16.9487C65.3041 16.2775 66.2145 15.9004 67.1637 15.9004H75.9347V41.657C75.9347 42.7529 75.4993 43.804 74.7244 44.579C73.9494 45.3539 72.8983 45.7893 71.8024 45.7893H63.5847Z" fill="#0E6835"/>
    <path d="M77.3226 45.7893V40.9849C77.3229 39.5042 77.8706 38.0758 78.8605 36.9745L93.2235 20.9829L95.2459 24.9183H77.7602V19.12C77.7602 18.6972 77.8435 18.2785 78.0053 17.8879C78.1671 17.4973 78.4042 17.1423 78.7032 16.8434C79.0021 16.5444 79.3571 16.3073 79.7477 16.1455C80.1383 15.9837 80.5569 15.9004 80.9798 15.9004H105.248V23.0022L89.3475 40.7036L87.3251 36.7713H105.849V42.1258C105.849 42.607 105.755 43.0836 105.571 43.5283C105.387 43.9729 105.117 44.3769 104.777 44.7172C104.436 45.0575 104.032 45.3273 103.588 45.5113C103.143 45.6952 102.666 45.7897 102.185 45.7893H77.3226Z" fill="#0E6835"/>
    <path d="M182.543 45.9362C179.117 45.9362 176.076 45.2797 173.419 43.9669C170.869 42.7491 168.705 40.8494 167.167 38.478C165.686 36.0559 164.901 33.2716 164.901 30.4322C164.901 27.5928 165.686 24.8085 167.167 22.3864C168.711 20.0262 170.873 18.1359 173.419 16.9225C176.076 15.6097 179.117 14.9532 182.543 14.9532C186.184 14.9532 189.298 15.7368 191.886 17.3038C194.386 18.7671 196.284 21.0716 197.241 23.8055L189.901 27.4127C189.354 27.6876 188.727 27.7647 188.129 27.6308C187.531 27.4969 186.998 27.1604 186.619 26.6781C186.28 26.2256 185.873 25.8281 185.413 25.4997C184.559 24.8898 183.536 24.5619 182.487 24.5619C181.598 24.5563 180.723 24.7826 179.949 25.2184C179.147 25.6668 178.495 26.3406 178.073 27.1564C177.585 28.1685 177.351 29.2843 177.392 30.4072C177.354 31.5426 177.59 32.6705 178.08 33.6955C178.493 34.5244 179.147 35.2096 179.955 35.6617C180.73 36.0974 181.604 36.3237 182.493 36.3181C183.542 36.3181 184.565 35.9903 185.419 35.3803C186.309 34.7552 187.064 33.7539 187.685 32.3764L195.693 36.3118C195.911 36.4188 196.106 36.5684 196.265 36.7519C196.423 36.9353 196.544 37.1488 196.619 37.3797C196.694 37.6106 196.722 37.8541 196.701 38.096C196.68 38.3378 196.61 38.5729 196.497 38.7875C195.431 40.776 193.838 42.4327 191.892 43.5762C189.3 45.1495 186.184 45.9362 182.543 45.9362Z" fill="#0E6835"/>
    <path d="M8.07986 18.3135H11.5526C11.7497 18.3135 11.9448 18.2747 12.1268 18.1992C12.3088 18.1238 12.4742 18.0133 12.6136 17.874C12.7529 17.7347 12.8634 17.5693 12.9388 17.3872C13.0142 17.2052 13.053 17.0101 13.053 16.8131C13.053 16.2015 12.9325 15.5958 12.6985 15.0308C12.4644 14.4657 12.1214 13.9523 11.6889 13.5198C11.2564 13.0873 10.743 12.7442 10.1779 12.5102C9.61282 12.2761 9.00719 12.1556 8.39557 12.1556H2.63159V12.8652C2.63159 13.5807 2.77252 14.2891 3.04632 14.9502C3.32012 15.6112 3.72144 16.2118 4.22735 16.7177C4.73327 17.2236 5.33388 17.6249 5.9949 17.8987C6.65591 18.1725 7.36438 18.3135 8.07986 18.3135Z" fill="#0E6835"/>
    <path d="M69.8519 14.2906H74.228C74.6259 14.2906 75.0076 14.1325 75.2889 13.8511C75.5703 13.5697 75.7284 13.1881 75.7284 12.7902V12.2494C75.7284 11.0139 75.2378 9.82896 74.3645 8.95502C73.4911 8.08109 72.3065 7.5897 71.071 7.58887H64.4036V8.83919C64.4032 9.55493 64.5438 10.2637 64.8175 10.9251C65.0911 11.5865 65.4923 12.1875 65.9983 12.6937C66.5042 13.2 67.105 13.6016 67.7662 13.8756C68.4274 14.1495 69.1362 14.2906 69.8519 14.2906Z" fill="#0E6835"/>
    <path d="M36.0807 24.9433C38.5564 24.8558 41.0351 24.9433 43.5108 24.9027C44.8392 24.887 46.2333 24.6213 47.5493 24.9027C48.2541 24.9878 48.9022 25.3317 49.3678 25.8677C49.8333 26.4037 50.0831 27.0936 50.0687 27.8034C50.0687 28.1441 49.9593 28.091 49.6623 28.091H45.4112C42.4667 28.091 40.0317 28.4348 38.1063 29.1225C36.1808 29.8102 34.7512 30.824 33.8177 32.1639C32.8554 33.6043 32.3659 35.3087 32.4173 37.0401C32.3981 38.6671 32.8113 40.27 33.6145 41.6851C34.4488 43.1143 35.6758 44.274 37.1498 45.0266C38.7106 45.8601 40.6507 46.2769 42.97 46.2769C45.4331 46.2769 47.392 45.734 48.8465 44.6483C49.7419 43.9704 50.4568 43.0826 50.9283 42.0633C50.9335 42.0537 50.9418 42.0462 50.9517 42.0417C50.9617 42.0373 50.9728 42.0362 50.9835 42.0387C50.9941 42.0412 51.0036 42.0471 51.0106 42.0555C51.0175 42.0638 51.0216 42.0743 51.0221 42.0852L50.9189 46.2456C50.9189 46.2592 50.924 46.2722 50.9333 46.2821C50.9426 46.292 50.9554 46.298 50.9689 46.2988H58.2989C60.2525 46.2988 61.9436 44.0826 61.9436 42.0445V29.7633C61.9436 27.1314 61.5779 24.3463 60.3807 22.005C60.1018 21.4629 59.7743 20.9471 59.4023 20.464C58.97 19.8909 58.4763 19.3669 57.9301 18.9011C55.245 16.6193 51.4565 16.0254 46.5709 16.0254L36.1245 16.091L36.0964 17.2382L36.0807 24.9433ZM50.4969 33.7612C50.4969 35.3835 50.1375 37.5403 48.4777 38.3498C46.9304 39.1032 45.1706 39.2376 43.4764 39.247C42.0885 39.247 39.7254 39.3626 40.5725 36.7182C40.9454 35.6344 41.6513 34.6962 42.5894 34.0377C43.5275 33.3792 44.6497 33.0341 45.7957 33.0516H50.4563C50.469 33.0516 50.4813 33.0564 50.4906 33.0651C50.4999 33.0739 50.5055 33.0858 50.5063 33.0985L50.4969 33.7612Z" fill="#0E6835"/>
    <path d="M106.746 20.3734V15.9004H125.969C127.301 15.9004 128.379 16.7506 128.379 17.8009V22.7115H109.081C108.774 22.7115 108.47 22.651 108.186 22.5335C107.903 22.4159 107.645 22.2436 107.429 22.0265C107.212 21.8093 107.04 21.5516 106.923 21.2679C106.805 20.9843 106.745 20.6803 106.746 20.3734ZM123.075 45.3798C119.128 45.3798 116.054 44.4285 113.854 42.5259C111.653 40.6234 110.556 37.6997 110.562 33.7549L110.303 7.52637H122.4V33.6487C122.377 34.0192 122.427 34.3905 122.549 34.7414C122.67 35.0923 122.859 35.4156 123.106 35.6929C123.332 35.9309 123.604 36.1189 123.907 36.2449C124.21 36.3709 124.535 36.432 124.863 36.4244C125.781 36.4422 126.684 36.1865 127.457 35.6898C127.466 35.684 127.476 35.6802 127.487 35.6788C127.498 35.6774 127.508 35.6784 127.519 35.6817C127.529 35.685 127.538 35.6905 127.546 35.6978C127.554 35.7052 127.56 35.7142 127.564 35.7242L130.361 43.8513C129.343 44.4165 128.236 44.8064 127.088 45.0047C125.762 45.258 124.415 45.3846 123.066 45.3829L123.075 45.3798Z" fill="#0E6835"/>
    <path d="M160.791 21.3424C159.317 19.079 157.233 17.2789 154.78 16.1504C152.22 14.9723 149.43 14.3756 146.612 14.4031C143.61 14.357 140.641 15.0312 137.954 16.3692C135.471 17.6039 133.373 19.4932 131.886 21.8331C130.389 24.2412 129.62 27.0312 129.673 29.8664C129.634 32.6774 130.412 35.4392 131.915 37.8153C133.463 40.2135 135.648 42.1335 138.226 43.3605C140.935 44.7108 144.112 45.385 147.759 45.3829C150.747 45.3829 153.306 44.9734 155.436 44.1545C157.482 43.3922 159.324 42.1673 160.819 40.5754L154.583 34.2863C154.524 34.2271 154.446 34.1908 154.363 34.1839C154.28 34.1771 154.197 34.2001 154.13 34.2488C153.333 34.8363 152.469 35.3274 151.557 35.7117C150.465 36.1105 149.306 36.2962 148.144 36.2587C146.961 36.2916 145.785 36.0576 144.705 35.5741C143.778 35.14 143.012 34.4233 142.517 33.5267C142.381 33.2808 142.264 33.0247 142.167 32.7609H161.472C161.861 32.7603 162.236 32.6124 162.521 32.3468C162.806 32.0812 162.979 31.7177 163.007 31.3293V31.3137C163.044 30.7854 163.063 30.304 163.063 29.8664C163.071 26.4781 162.314 23.6367 160.791 21.3424ZM150.938 28.2191H147.465C146.02 28.2191 144.635 27.6451 143.613 26.6234C142.591 25.6016 142.017 24.2158 142.017 22.7709V22.0644H147.781C148.394 22.0636 149.001 22.1837 149.568 22.418C150.135 22.6522 150.649 22.996 151.083 23.4295C151.516 23.863 151.86 24.3778 152.094 24.9444C152.329 25.5109 152.449 26.1182 152.448 26.7312C152.448 26.9291 152.409 27.1249 152.333 27.3076C152.257 27.4902 152.145 27.6561 152.005 27.7955C151.865 27.935 151.698 28.0453 151.515 28.1201C151.332 28.195 151.136 28.2329 150.938 28.2316V28.2191Z" fill="#0E6835"/>
    </svg>
    